<?xml version="1.0" encoding="utf-8"?>
<!-- Generator: Adobe Illustrator 24.2.3, SVG Export Plug-In . SVG Version: 6.00 Build 0)  -->
<svg version="1.1" id="Layer_1" xmlns="http://www.w3.org/2000/svg" xmlns:xlink="http://www.w3.org/1999/xlink" x="0px" y="0px"
	 viewBox="0 0 500 116.63" style="enable-background:new 0 0 500 116.63;" xml:space="preserve">
<style type="text/css">
	.internet{fill:#404041;}
	.piri{fill:#39C1D7;}
</style>
<g>
	<g>
		<path class="internet" d="M36.57,38.29c0-4.7-3.99-8.97-7.12-10.82l15.51-9.39c0,0,4.13,2.99,5.55,6.69c0,0,6.69-6.26,12.67-6.26
			c7.83,0,12.67,6.26,12.67,12.24v41.84h5.69v12.81H59.63V40.13c0-3.27-0.57-4.13-2.42-4.13c-1.99,0-4.27,3.84-4.27,3.84v45.54
			H31.31V72.59h5.27V38.29z"/>
		<path class="internet" d="M82.54,32.73V19.92h8.54V0h16.22v19.92h8.82v12.81h-8.82v33.02c0,6.26,4.13,10.25,7.12,12.24l-13.81,9.39
			c-4.41-3.27-9.54-8.11-9.54-17.08V32.73H82.54z"/>
		<path class="internet" d="M151.14,66.47l7.54,10.67c0,0-7.4,9.68-17.51,9.68c-15.23,0-21.21-11.39-21.21-34.16
			c0-22.77,6.97-34.16,21.21-34.16c13.52,0,18.08,13.66,18.08,28.61c0,2.13-0.28,4.98-0.28,4.98c-7.26,6.12-13.95,8.97-22.06,8.97
			c0,9.68,2.99,11.1,5.83,11.1C147.01,72.16,151.14,66.47,151.14,66.47z M145.45,43.84c0.85-5.98-0.71-10.39-3.84-10.39
			c-3.13,0-4.7,3.27-4.7,13.52C140.04,46.97,143.17,45.97,145.45,43.84z"/>
		<path class="internet" d="M162.1,27.47l15.51-9.39c0,0,4.13,2.85,5.55,6.55c0,0,6.83-6.26,14.09-6.26v19.36
			c-6.69,0-11.81,3.84-11.81,3.84v31.03h5.69v12.95h-27.18V72.59h5.27v-34.3C169.21,33.59,165.23,29.32,162.1,27.47z"/>
		<path class="internet" d="M205.65,38.29c0-4.7-3.98-8.97-7.12-10.82l15.51-9.39c0,0,4.13,2.99,5.55,6.69c0,0,6.69-6.26,12.67-6.26
			c7.83,0,12.67,6.26,12.67,12.24v41.84h5.69v12.81H228.7V40.13c0-3.27-0.57-4.13-2.42-4.13c-1.99,0-4.27,3.84-4.27,3.84v45.54
			h-21.63V72.59h5.27V38.29z"/>
		<path class="internet" d="M286.06,66.47l7.54,10.67c0,0-7.4,9.68-17.51,9.68c-15.23,0-21.21-11.39-21.21-34.16
			c0-22.77,6.97-34.16,21.21-34.16c13.52,0,18.08,13.66,18.08,28.61c0,2.13-0.28,4.98-0.28,4.98c-7.26,6.12-13.95,8.97-22.06,8.97
			c0,9.68,2.99,11.1,5.83,11.1C281.93,72.16,286.06,66.47,286.06,66.47z M280.37,43.84c0.85-5.98-0.71-10.39-3.84-10.39
			c-3.13,0-4.7,3.27-4.7,13.52C274.96,46.97,278.09,45.97,280.37,43.84z"/>
		<path class="internet" d="M296.45,32.73V19.92h8.54V0h16.22v19.92h8.82v12.81h-8.82v33.02c0,6.26,4.13,10.25,7.12,12.24l-13.81,9.39
			c-4.41-3.27-9.54-8.11-9.54-17.08V32.73H296.45z"/>
		<path class="internet" d="M13.52,10.78c5.12,0,9.25,4.13,9.25,9.25s-4.13,9.25-9.25,9.25s-9.25-4.13-9.25-9.25S8.4,10.78,13.52,10.78z"
			/>
		<path class="internet" d="M21.49,72.59v-42.4c-2.2,1.73-4.96,2.77-7.97,2.77c-7.13,0-12.93-5.8-12.93-12.93c0-0.03,0-0.07,0.01-0.1H0
			v12.81h5.27v39.85H0v12.81h27.18V72.59H21.49z"/>
	</g>
	<g>
		<path class="piri" d="M349.89,27.58l15.62-9.37c2.27,1.56,4.97,4.83,5.82,7.53c2.84-4.54,6.67-7.1,11.36-7.1
			c11.08,0,17.61,11.36,17.61,34.08c0,22.72-6.53,34.08-17.61,34.08c-3.69,0-7.53-2.41-9.37-5.68v22.72H379v12.78h-27.12v-12.78
			h5.25V38.38C357.13,33.69,353.16,29.43,349.89,27.58z M382.98,52.72c0-12.78-1.42-17.04-4.54-17.04c-3.12,0-5.11,4.26-5.11,17.04
			s1.99,17.04,5.11,17.04C381.56,69.76,382.98,65.5,382.98,52.72z"/>
		<path class="piri" d="M434.67,27.58l15.48-9.37c0,0,4.12,2.84,5.54,6.53c0,0,6.82-6.25,14.06-6.25v19.31
			c-6.67,0-11.79,3.83-11.79,3.83V72.6h5.68v12.92h-27.12V72.6h5.25V38.38C441.77,33.69,437.8,29.43,434.67,27.58z"/>
		<path class="piri" d="M418.77,10.78c5.11,0,9.23,4.12,9.23,9.23c0,5.11-4.12,9.23-9.23,9.23c-5.11,0-9.23-4.12-9.23-9.23
			C409.54,14.9,413.66,10.78,418.77,10.78z"/>
		<path class="piri" d="M426.72,72.6V30.19c-2.2,1.72-4.95,2.75-7.95,2.75c-7.12,0-12.91-5.78-12.93-12.89h-0.56v12.78h5.25V72.6
			h-5.25v12.78h27.12V72.6H426.72z"/>
		<path class="piri" d="M486.37,10.78c5.11,0,9.23,4.12,9.23,9.23c0,5.11-4.12,9.23-9.23,9.23c-5.11,0-9.23-4.12-9.23-9.23
			C477.14,14.9,481.25,10.78,486.37,10.78z"/>
		<path class="piri" d="M494.32,72.6V30.19c-2.2,1.72-4.95,2.75-7.95,2.75c-7.12,0-12.91-5.78-12.93-12.89h-0.56v12.78h5.25V72.6
			h-5.25v12.78H500V72.6H494.32z"/>
	</g>
</g>
</svg>
